<?xml version="1.0" encoding="utf-8"?>
<!-- Generator: Adobe Illustrator 28.0.0, SVG Export Plug-In . SVG Version: 6.00 Build 0)  -->
<svg version="1.1" id="Layer_1" xmlns="http://www.w3.org/2000/svg" xmlns:xlink="http://www.w3.org/1999/xlink" x="0px" y="0px"
	 viewBox="0 0 1000 1000" style="enable-background:new 0 0 1000 1000;" xml:space="preserve">
<style type="text/css">
	.st0{fill:#8BC34A;}
	.st1{fill:none;stroke:#8BC34A;stroke-miterlimit:10;}
</style>
<g id="XMLID_00000065063065914602050570000015327415148047846545_">
	<g>
		<path class="st0" d="M849.67,538.47l140.8,246.94h-2.13H835.96c-3.17-0.12-10.07-0.83-17.16-5.39
			c-8.58-5.53-12.09-13.3-13.22-16.16c-14.37-25.08-28.75-50.16-43.1-75.22L849.67,538.47z"/>
		<path class="st0" d="M686.03,256.74l141.83,243.39L662.03,785.41H486.53l157.86-283.19l-72.54-123.1l-103.61-1.38l85.57-162.92
			C644.95,204.53,669.45,240.45,686.03,256.74z"/>
		<path class="st0" d="M529,622.45L437.87,786.1c-90.63,5.39-102.55-25.75-124.45-42.62L174.75,500.13l162.67-285.32h168.55
			L355.06,498l72.54,123.1L529,622.45z"/>
		<path class="st0" d="M193.87,236.37c14.37,25.08,28.73,50.16,43.1,75.24l-87.2,150.14L8.99,214.81h2.13h152.37
			c3.17,0.12,10.07,0.83,17.16,5.39C189.2,225.73,192.73,233.51,193.87,236.37z"/>
	</g>
	<g>
		<path class="st1" d="M8.99,214.81h2.13h152.37c3.17,0.12,10.07,0.83,17.16,5.39c8.56,5.53,12.09,13.3,13.22,16.16
			c14.37,25.08,28.73,50.16,43.1,75.24l-87.2,150.14L8.99,214.81z"/>
		<path class="st1" d="M337.43,214.81L174.75,500.13l138.67,243.35c21.9,16.87,33.81,48.01,124.45,42.62L529,622.45l-101.4-1.34
			L355.06,498l150.91-283.19H337.43z"/>
		<path class="st1" d="M990.46,785.41h-2.13H835.96c-3.17-0.12-10.07-0.83-17.16-5.39c-8.58-5.53-12.09-13.3-13.22-16.16
			c-14.37-25.08-28.75-50.16-43.1-75.22l87.18-150.16L990.46,785.41z"/>
		<path class="st1" d="M662.03,785.41l165.84-285.28L686.03,256.74c-16.58-16.29-41.09-52.22-132.22-41.93l-85.57,162.92
			l103.61,1.38l72.54,123.1L486.53,785.41H662.03z"/>
	</g>
</g>
</svg>
